<?xml version="1.0" encoding="UTF-8"?>
<svg xmlns="http://www.w3.org/2000/svg" xmlns:xlink="http://www.w3.org/1999/xlink" viewBox="0 0 60 60" width="60px" height="60px">
<g id="surface589844">
<path style="fill-rule:nonzero;fill:rgb(100%,100%,100%);fill-opacity:1;stroke-width:9;stroke-linecap:butt;stroke-linejoin:round;stroke:rgb(0%,0%,0%);stroke-opacity:1;stroke-miterlimit:10;" d="M 145.266449 55.600604 C 145.325385 56.908992 145.34896 58.229167 145.34896 59.56113 C 145.34896 99.967929 114.595944 146.574837 58.34704 146.574837 C 41.066886 146.574837 25.000822 141.506306 11.457237 132.830868 C 13.861842 133.12555 16.290022 133.266997 18.765351 133.266997 C 33.086897 133.266997 46.276864 128.375276 56.74397 120.171328 C 43.365406 119.923795 32.061404 111.083335 28.171601 98.930648 C 30.033991 99.284266 31.955318 99.472863 33.923794 99.472863 C 36.71738 99.472863 39.416667 99.09567 41.986294 98.40022 C 27.994792 95.594847 17.456963 83.241777 17.456963 68.413378 C 17.456963 68.283718 17.456963 68.165845 17.456963 68.036185 C 21.570724 70.322917 26.297423 71.690242 31.307018 71.855264 C 23.10307 66.374178 17.704496 57.015077 17.704496 46.406525 C 17.704496 40.795779 19.213268 35.538652 21.841831 31.024123 C 36.929551 49.530154 59.455044 61.706415 84.880209 62.979441 C 84.361569 60.751645 84.090461 58.405976 84.090461 56.013158 C 84.090461 39.133772 97.775494 25.436952 114.666668 25.436952 C 123.459979 25.436952 131.404607 29.149945 136.991778 35.090735 C 143.958061 33.72341 150.500002 31.177358 156.405429 27.664748 C 154.130484 34.80784 149.285912 40.807566 142.967929 44.591283 C 149.156252 43.848685 155.049892 42.210253 160.530978 39.770285 C 156.429004 45.899671 151.2426 51.286459 145.266449 55.600604 Z M 145.266449 55.600604 " transform="matrix(0.331395,0,0,0.331395,1.5,1.5)"/>
<path style=" stroke:none;fill-rule:nonzero;fill:rgb(100%,100%,100%);fill-opacity:1;" d="M 54.699219 14.679688 C 52.882812 15.488281 50.929688 16.03125 48.878906 16.277344 C 50.972656 15.023438 52.578125 13.035156 53.332031 10.667969 C 51.375 11.832031 49.207031 12.675781 46.898438 13.128906 C 45.046875 11.160156 42.414062 9.929688 39.5 9.929688 C 33.902344 9.929688 29.367188 14.46875 29.367188 20.0625 C 29.367188 20.855469 29.457031 21.632812 29.628906 22.371094 C 21.203125 21.949219 13.738281 17.914062 8.738281 11.78125 C 7.867188 13.277344 7.367188 15.019531 7.367188 16.878906 C 7.367188 20.394531 9.15625 23.496094 11.875 25.3125 C 10.214844 25.257812 8.648438 24.804688 7.285156 24.046875 C 7.285156 24.089844 7.285156 24.128906 7.285156 24.171875 C 7.285156 29.085938 10.777344 33.179688 15.414062 34.109375 C 14.5625 34.339844 13.667969 34.464844 12.742188 34.464844 C 12.089844 34.464844 11.453125 34.402344 10.835938 34.285156 C 12.125 38.3125 15.871094 41.242188 20.304688 41.324219 C 16.835938 44.042969 12.46875 45.664062 7.71875 45.664062 C 6.898438 45.664062 6.09375 45.617188 5.296875 45.519531 C 9.785156 48.394531 15.109375 50.074219 20.835938 50.074219 C 39.476562 50.074219 49.667969 34.628906 49.667969 21.238281 C 49.667969 20.796875 49.660156 20.359375 49.640625 19.925781 C 51.621094 18.496094 53.339844 16.710938 54.699219 14.679688 Z M 54.699219 14.679688 "/>
</g>
</svg>
